<?xml version="1.0" encoding="utf-8"?><!-- Generator: Adobe Illustrator 16.0.0, SVG Export Plug-In . SVG Version: 6.00 Build 0)  --><!DOCTYPE svg PUBLIC "-//W3C//DTD SVG 1.1//EN" "http://www.w3.org/Graphics/SVG/1.1/DTD/svg11.dtd"><svg version="1.1" id="Layer_1" xmlns="http://www.w3.org/2000/svg" xmlns:xlink="http://www.w3.org/1999/xlink" x="0px" y="0px"	 width="143.184px" height="19.667px" viewBox="0 0 143.184 19.667" enable-background="new 0 0 143.184 19.667"	 xml:space="preserve"><path d="M29.921-279.908c-0.215-0.373-0.613-0.603-1.043-0.603h-9.379c-0.422,0-0.813,0.22-1.032,0.582l-4.062,6.728l-3.871-6.781	c-0.214-0.374-0.612-0.606-1.043-0.607l-9.826-0.026h-0.003c-0.429,0-0.825,0.228-1.041,0.599c-0.217,0.371-0.219,0.83-0.006,1.203	l9.669,16.946c0.211,0.371,0.604,0.603,1.031,0.608h0.015c0.422,0,0.813-0.22,1.032-0.582l3.984-6.601l3.737,6.549	c0.214,0.375,0.611,0.606,1.042,0.607h0.004c0.43,0,0.827-0.229,1.042-0.6l9.747-16.815	C30.136-279.074,30.137-279.535,29.921-279.908z M9.36-264.845l-7.621-13.356l7.048,0.018l4.191,7.344L9.36-264.845z	 M19.139-264.907l-3.366-5.897l4.405-7.297h6.608L19.139-264.907z"/><rect x="-38.043" y="-337.781" fill="none" stroke="#A7A9AC" stroke-width="0.7087" stroke-miterlimit="10" width="226.771" height="141.732"/><text transform="matrix(1 0 0 1 35.6494 -263.5317)" font-family="'Akkurat'" font-size="24.0945">websiteni</text><rect x="201.98" y="-337.781" width="226.772" height="141.732"/><text transform="matrix(1 0 0 1 280.6738 -263.5317)" fill="#FFFFFF" font-family="'Akkurat'" font-size="24.0945">websiteni</text><path fill="#FFFFFF" d="M274.946-279.908c-0.215-0.373-0.613-0.603-1.043-0.603h-9.379c-0.422,0-0.813,0.22-1.032,0.582	l-4.062,6.728l-3.871-6.781c-0.214-0.374-0.612-0.606-1.043-0.607l-9.826-0.026h-0.003c-0.429,0-0.825,0.228-1.041,0.599	c-0.217,0.371-0.219,0.83-0.006,1.203l9.669,16.946c0.211,0.371,0.604,0.603,1.031,0.608h0.015c0.422,0,0.813-0.22,1.032-0.582	l3.984-6.601l3.737,6.549c0.214,0.375,0.611,0.606,1.042,0.607h0.004c0.43,0,0.827-0.229,1.042-0.6l9.747-16.815	C275.161-279.074,275.161-279.535,274.946-279.908z M254.385-264.845l-7.621-13.356l7.048,0.018l4.191,7.344L254.385-264.845z	 M264.163-264.907l-3.366-5.897l4.405-7.297h6.608L264.163-264.907z"/><g>	<path fill="#231F20" d="M51.601,17.396h-1.976l-3.18-9.324l-3.252,9.324h-1.952L38.108,5.205h2.024l2.337,9.203l3.108-9.059h1.759		l3.06,9.059l2.361-9.203h2L51.601,17.396z"/>	<path fill="#231F20" d="M67.6,11.975h-8.625c0,1.108,0.434,2.313,1.181,3.061c0.554,0.554,1.301,0.867,2.241,0.867		c0.963,0,1.759-0.266,2.265-0.795c0.337-0.338,0.554-0.675,0.723-1.326h2c-0.169,1.205-0.892,2.338-1.879,3.012		c-0.867,0.579-1.952,0.916-3.108,0.916c-1.711,0-3.108-0.723-4.048-1.831c-1.012-1.181-1.518-2.795-1.518-4.529		c0-1.47,0.265-2.771,0.94-3.903c0.867-1.47,2.481-2.554,4.602-2.554c1.566,0,2.819,0.603,3.71,1.565		c0.988,1.084,1.566,2.65,1.542,4.289L67.6,11.975z M64.781,7.734c-0.506-0.674-1.325-1.108-2.41-1.108		c-2.216,0-3.301,1.808-3.349,3.591h6.505C65.528,9.301,65.263,8.385,64.781,7.734z"/>	<path fill="#231F20" d="M80.105,16.385c-0.795,0.818-1.952,1.324-3.445,1.324c-1.374,0-2.939-0.674-3.638-1.903l-0.145,1.591H71.07		V0h2.048v6.626c0.65-1.108,2.217-1.734,3.542-1.734c1.421,0,2.554,0.481,3.349,1.229c1.229,1.181,1.855,3.108,1.855,5.204		C81.864,13.348,81.261,15.203,80.105,16.385z M76.322,6.626c-0.892,0-1.494,0.362-1.976,0.796c-1.012,0.891-1.35,2.36-1.35,3.879		c0,1.518,0.337,2.987,1.35,3.879c0.482,0.434,1.084,0.795,1.976,0.795c2.723,0,3.445-2.434,3.445-4.674		C79.768,9.06,79.045,6.626,76.322,6.626z"/>	<path fill="#231F20" d="M93.477,16.336c-0.939,0.964-2.385,1.373-3.976,1.373c-1.518,0-2.915-0.361-3.951-1.373		c-0.747-0.723-1.181-1.759-1.181-2.795h2.048c0.024,0.844,0.41,1.47,0.988,1.903c0.554,0.409,1.422,0.554,2.193,0.554		c0.843,0,1.614-0.145,2.241-0.674c0.337-0.266,0.602-0.771,0.602-1.325c0-0.916-0.65-1.566-1.903-1.735		c-0.53-0.072-1.903-0.24-2.747-0.361c-1.831-0.289-2.988-1.422-2.988-3.276c0-0.94,0.458-1.831,1.012-2.386		c0.795-0.818,2.072-1.349,3.59-1.349c1.614,0,3.06,0.506,3.879,1.542c0.53,0.65,0.868,1.35,0.868,2.337h-2.048		c-0.024-0.626-0.337-1.204-0.699-1.519c-0.506-0.457-1.181-0.65-2-0.65c-0.482,0-0.843,0-1.421,0.241		c-0.771,0.313-1.229,0.964-1.229,1.639c0,1.012,0.626,1.445,1.639,1.591c0.674,0.096,1.638,0.191,2.939,0.408		c1.734,0.289,3.108,1.543,3.108,3.373C94.441,14.914,94.055,15.733,93.477,16.336z"/>	<path fill="#231F20" d="M97.814,2.41V0h2.385v2.41H97.814z M97.959,17.396V5.205h2.096v12.191H97.959z"/>	<path fill="#231F20" d="M108.416,17.564c-2.626,0-3.349-1.662-3.349-3.301V6.963h-2.361V5.205h2.361V2.097l2.048-0.481v3.59h3.614		v1.758h-3.614v7.061c0,1.18,0.506,1.662,1.638,1.662c0.867,0,2.096-0.217,2.096-0.217v1.759		C110.295,17.372,109.548,17.564,108.416,17.564z"/>	<path fill="#231F20" d="M123.378,11.975h-8.625c0,1.108,0.434,2.313,1.181,3.061c0.554,0.554,1.301,0.867,2.241,0.867		c0.963,0,1.759-0.266,2.265-0.795c0.337-0.338,0.554-0.675,0.723-1.326h2c-0.169,1.205-0.892,2.338-1.879,3.012		c-0.867,0.579-1.952,0.916-3.108,0.916c-1.711,0-3.108-0.723-4.048-1.831c-1.012-1.181-1.518-2.795-1.518-4.529		c0-1.47,0.265-2.771,0.94-3.903c0.867-1.47,2.481-2.554,4.602-2.554c1.566,0,2.819,0.603,3.71,1.565		c0.988,1.084,1.566,2.65,1.542,4.289L123.378,11.975z M120.559,7.734c-0.506-0.674-1.325-1.108-2.41-1.108		c-2.216,0-3.301,1.808-3.349,3.591h6.505C121.306,9.301,121.041,8.385,120.559,7.734z"/>	<path fill="#B5C746" d="M134.654,17.396V9.662c0-1.831-0.747-2.916-2.674-2.916c-1.181,0-2.12,0.771-2.65,1.88		c-0.409,0.892-0.434,2.169-0.434,3.108v5.662h-2.048V5.205h1.783l0.169,1.83c0.626-1.396,2.313-2.144,3.686-2.144		c2.771,0,4.217,1.662,4.217,4.481v8.023H134.654z"/>	<path fill="#B5C746" d="M140.798,2.41V0h2.385v2.41H140.798z M140.943,17.396V5.205h2.096v12.191H140.943z"/></g><path fill="#B5C746" d="M31.464,1.02c-0.215-0.373-0.612-0.602-1.043-0.602h-9.38c-0.422,0-0.813,0.22-1.031,0.581l-4.062,6.728	l-3.871-6.781c-0.214-0.374-0.611-0.606-1.043-0.607L1.208,0.312H1.205c-0.429,0-0.825,0.228-1.041,0.599	c-0.217,0.371-0.219,0.83-0.006,1.203l9.669,16.945c0.211,0.371,0.604,0.604,1.031,0.608h0.015c0.422,0,0.813-0.22,1.032-0.581	l3.984-6.602l3.737,6.549c0.214,0.375,0.61,0.606,1.042,0.607h0.004c0.43,0,0.827-0.229,1.043-0.6l9.747-16.815	C31.679,1.854,31.68,1.393,31.464,1.02z M10.903,16.083L3.282,2.727l7.048,0.019l4.191,7.344L10.903,16.083z M20.682,16.021	l-3.366-5.897l4.405-7.297h6.608L20.682,16.021z"/><circle fill="none" stroke="#A7A9AC" stroke-width="0.7087" stroke-miterlimit="10" cx="-11.315" cy="-155.517" r="25.745"/><path d="M2.378-162.091c-0.188-0.327-0.537-0.527-0.913-0.527H-6.74c-0.37,0-0.712,0.192-0.903,0.509l-3.552,5.886l-3.387-5.933	c-0.188-0.328-0.535-0.531-0.913-0.532l-8.597-0.023h-0.003c-0.375,0-0.721,0.2-0.91,0.524c-0.189,0.324-0.191,0.726-0.005,1.052	l8.459,14.826c0.185,0.325,0.528,0.527,0.902,0.532h0.013c0.37,0,0.712-0.192,0.903-0.509l3.486-5.775l3.269,5.729	c0.188,0.328,0.535,0.531,0.913,0.531h0.003c0.376,0,0.723-0.199,0.913-0.524l8.526-14.712	C2.566-161.362,2.566-161.765,2.378-162.091z M-15.61-148.914l-6.667-11.685l6.166,0.016l3.667,6.424L-15.61-148.914z	 M-7.056-148.968l-2.944-5.16l3.854-6.383h5.782L-7.056-148.968z"/><circle cx="228.406" cy="-155.517" r="25.745"/><path fill="#FFFFFF" d="M242.099-162.091c-0.188-0.327-0.537-0.527-0.913-0.527h-8.206c-0.37,0-0.712,0.192-0.903,0.509	l-3.552,5.886l-3.387-5.933c-0.187-0.328-0.535-0.531-0.913-0.532l-8.597-0.023h-0.003c-0.375,0-0.721,0.2-0.91,0.524	c-0.189,0.324-0.191,0.726-0.005,1.052l8.459,14.826c0.185,0.325,0.528,0.527,0.902,0.532h0.013c0.37,0,0.712-0.192,0.903-0.509	l3.486-5.775l3.269,5.729c0.188,0.328,0.535,0.531,0.913,0.531h0.003c0.376,0,0.723-0.199,0.913-0.524l8.526-14.712	C242.287-161.362,242.287-161.765,242.099-162.091z M224.111-148.914l-6.667-11.685l6.166,0.016l3.667,6.424L224.111-148.914z	 M232.665-148.968l-2.944-5.16l3.854-6.383h5.782L232.665-148.968z"/><circle cx="-14.378" cy="125.41" r="25.745"/><path fill="#B5C746" d="M-0.685,118.836c-0.188-0.326-0.537-0.527-0.913-0.527h-8.206c-0.37,0-0.712,0.193-0.903,0.51l-3.553,5.885	l-3.387-5.932c-0.187-0.328-0.534-0.531-0.912-0.532l-8.597-0.022h-0.004c-0.374,0-0.721,0.199-0.91,0.523	c-0.188,0.324-0.191,0.727-0.005,1.053l8.459,14.825c0.185,0.325,0.528,0.527,0.902,0.532h0.014c0.369,0,0.711-0.192,0.902-0.51	l3.486-5.774l3.269,5.729c0.188,0.328,0.534,0.531,0.912,0.531h0.004c0.376,0,0.723-0.199,0.912-0.524l8.526-14.712	C-0.497,119.565-0.497,119.162-0.685,118.836z M-18.674,132.014l-6.667-11.684l6.166,0.016l3.667,6.424L-18.674,132.014z	 M-10.119,131.959l-2.944-5.159l3.854-6.384h5.781L-10.119,131.959z"/><rect x="208.523" y="-56.854" fill="#B5C746" width="226.772" height="141.732"/><text transform="matrix(1 0 0 1 287.2178 17.3965)" fill="#FFFFFF" font-family="'Akkurat'" font-size="24.0945">websiteni</text><path fill="#FFFFFF" d="M281.488,1.02c-0.215-0.373-0.612-0.602-1.043-0.602h-9.38c-0.422,0-0.813,0.22-1.031,0.581l-4.062,6.728	l-3.871-6.781c-0.214-0.374-0.611-0.606-1.043-0.607l-9.826-0.026h-0.003c-0.429,0-0.825,0.228-1.041,0.599	c-0.217,0.371-0.219,0.83-0.006,1.203l9.669,16.945c0.211,0.371,0.604,0.604,1.031,0.608h0.015c0.422,0,0.813-0.22,1.032-0.581	l3.984-6.602l3.737,6.549c0.214,0.375,0.61,0.606,1.042,0.607h0.004c0.43,0,0.827-0.229,1.043-0.6l9.747-16.815	C281.703,1.854,281.704,1.393,281.488,1.02z M260.928,16.083l-7.621-13.356l7.048,0.019l4.191,7.344L260.928,16.083z	 M270.706,16.021l-3.366-5.897l4.405-7.297h6.608L270.706,16.021z"/><circle fill="#B5C746" cx="235.646" cy="125.41" r="25.745"/><path fill="#FFFFFF" d="M249.34,118.836c-0.188-0.326-0.537-0.527-0.913-0.527h-8.206c-0.37,0-0.712,0.193-0.903,0.51l-3.553,5.885	l-3.387-5.932c-0.187-0.328-0.534-0.531-0.912-0.532l-8.597-0.022h-0.004c-0.374,0-0.721,0.199-0.91,0.523	c-0.188,0.324-0.191,0.727-0.005,1.053l8.459,14.825c0.185,0.325,0.528,0.527,0.902,0.532h0.014c0.369,0,0.711-0.192,0.902-0.51	l3.486-5.774l3.269,5.729c0.188,0.328,0.534,0.531,0.912,0.531h0.004c0.376,0,0.723-0.199,0.912-0.524l8.526-14.712	C249.527,119.565,249.527,119.162,249.34,118.836z M231.351,132.014l-6.667-11.684l6.166,0.016l3.667,6.424L231.351,132.014z	 M239.905,131.959l-2.944-5.159l3.854-6.384h5.781L239.905,131.959z"/></svg>